<?xml version="1.0" encoding="utf-8"?>
<!-- Generator: Adobe Illustrator 27.0.1, SVG Export Plug-In . SVG Version: 6.00 Build 0)  -->
<svg version="1.1" id="Layer_1" xmlns="http://www.w3.org/2000/svg" xmlns:xlink="http://www.w3.org/1999/xlink" x="0px" y="0px"
	 viewBox="0 0 2637.5 3505" style="enable-background:new 0 0 2637.5 3505;" xml:space="preserve">
<g>
	<path d="M1738.8,2826c-2.2-209-10.1-403.3-17.8-591.3c-9.4-229.3-18.2-445.9-16.8-678c0.1-18.5,1.2-40.7,2.4-64.2
		c3.4-67.9,7.6-152.5-11.2-183.5c-24.9-40.9-159.4-47.9-234.9-45.6c-13.7,0.4-26.3,1.1-38.5,1.9c-5.1,0.4-10.3,0.8-15.4,1.2
		c-2.6,0.2-5.1,0.4-7.5,0.7c-0.1,0-0.2,0-0.2,0l-15.5,1.5c-1.4,0.1-2.7,0.3-4,0.4s-2.6,0.3-3.8,0.4c-2,0.2-3.9,0.4-5.8,0.6
		c-2,0.3-4,0.5-6,0.7c-3.8,0.4-7.7,0.9-11.5,1.4l-23.3,3c-1.4,0.2-2.7,0.4-4,0.6c-1.2,0.1-2.5,0.3-3.7,0.5c-0.1,0-0.1,0-0.2,0
		c-2.6,0.4-5.1,0.7-7.7,1.1c-2.6,0.4-5.2,0.7-7.8,1.1c-1.6,0.2-3.3,0.5-4.9,0.7c-3.6,0.5-6.9,1-10.3,1.6c-0.1,0-0.1,0-0.2,0
		l-7.8,1.2c-5.7,0.9-10.5,1.7-15.4,2.5h-0.1c-2.6,0.4-5.2,0.8-7.7,1.2c-2.6,0.5-5.2,0.9-7.8,1.3c-2.3,0.4-4.7,0.8-7,1.2
		c-2.8,0.5-5.5,0.9-8.3,1.4l-6.5,1.1c-4.3,0.7-8.5,1.5-12.7,2.2l-19.2,3.4c-3.8,0.7-7.6,1.3-11.4,2s-7.7,1.3-11.5,2l-2,0.4
		c-4.4,0.8-8.8,1.6-13.3,2.3c-7.5,1.3-15,2.6-22.5,3.9c-49.3,8.3-101.8,16.5-152.5,20.3c7.7,152.7,23.3,322.9,44,480.4
		c27.6,209.7,47.5,432.6,66.7,648.1c19.1,214,38.8,435.3,66.4,649c0.2,0.6,0.3,1.1,0.4,1.7c1.3,10,2.6,21.2,3.9,33
		c7.8,68.5,18.4,162.4,52.8,194.2c33.6,31.1,135.7,29.3,210.2,28c14.7-0.3,28.6-0.5,41.2-0.5c15.8,0,31.6,0.2,46.8,0.4
		c80.6,1,156.8,1.9,203.2-27.1c33.1-114.1,28-241.8,22.6-376.9C1741,2914.5,1739.2,2870,1738.8,2826z M1522.3,2998.1
		c-5.3,1.7-10.5,2.6-15.5,2.6c-10.7,0-20.5-3.9-27.7-11.4c-1.4-1.4-2.1-3.2-2.3-5.2c-0.4-8.8,2.9-17.5,9.6-25
		c5.8-6.4,13.7-11.6,22.5-14.8c18.9-6.9,36.7-3.1,46.5,9.9c1.3,1.7,1.9,3.7,1.6,5.8C1555,2976.6,1541,2991.9,1522.3,2998.1z
		 M1565.3,3080.6c-0.4,0.1-0.9,0.1-1.3,0.1c-3,0-5.8-1.7-7.2-4.4l-0.1-0.3c-2.1-4.2-2.8-5.1-4.2-5.4c-3.5-0.7-6.2-3.7-6.4-7.3
		c-2.7-42.3,35.9-46,56.6-47.9c4.3-0.4,8.1,2.6,8.7,6.8C1617.8,3066.7,1588.2,3076.8,1565.3,3080.6z"/>
	<path d="M948.6,2812.1c-18.7-141.3-42-281.1-66.6-429.1c-4-24.6-8.2-49.4-12.3-74.4c-17.4-105.3-31.1-210.3-44.4-311.8
		c-19-144.7-38.5-294.3-69.2-448.4c-2-9.9-4-21-6.2-32.8c-12.5-67.6-29.5-160.2-65.2-189.8c-57.8-47.7-173.9-36.1-276.3-25.9
		c-35.3,3.5-68.9,6.8-99.1,7.8c20.7,114.7,37.7,247.7,54.1,376.5c8,62.6,15.5,121.7,23.3,177.5c0.4,2.6,0.7,5.2,1.1,7.7
		c0.4,2.6,0.7,5.2,1.1,7.8c0.7,5.1,1.5,10.2,2.2,15.4c0.7,5.1,1.5,10.3,2.2,15.4c1.5,10.1,3,20.5,4.6,30.8c0.9,6.7,2,13.5,3,20
		l0.5,3.2c2.3,15.7,4.8,31.5,7.1,46.3v0.1c1.2,7.5,2.4,15.3,3.7,22.9l0.3,1.9c0.7,4.5,1.4,9.1,2.2,13.5v0.1
		c2.5,15.4,5,30.8,7.5,46.3c13.1,79.7,27,157.7,37.6,216.8l8.7,48.3l2,11.2c3.6,20.1,7.4,40.9,11.2,61.3c2.7,14.4,5.9,31.5,8.9,48.4
		c4,21.5,8,43.2,12,64.8c18.8,101.2,38.3,205.9,56.8,310.1l0.7,3.9c0.5,2.7,0.9,5.3,1.4,8.1c1.5,8.2,2.8,16.7,3.8,24.6v0.1
		c0.2,1,0.3,1.9,0.5,2.9s0.3,2.1,0.5,3.2c0.6,3.3,1.1,6.6,1.6,10c0.4,2.9,0.8,5.8,1.3,8.7v0.1c0.3,1.9,0.6,3.9,0.9,5.8
		c0.3,2.3,0.7,4.7,1,7c0.3,1.8,0.6,3.8,0.9,5.7c0.3,2.4,0.7,4.7,1,7.1c2.5,17.1,5.2,34.7,7.7,51.6c1,6.5,2,13,3,19.4l2.1,12.8
		c1,6.6,2.2,13.1,3.2,19.2c0.2,1.4,0.5,2.8,0.7,4.1c0.2,1.3,0.5,2.6,0.7,3.9c1.3,7.2,2.7,15.5,4.3,23.6c0.1,0.5,0.2,1,0.3,1.6
		c0.1,0.5,0.2,1,0.3,1.5c0.9,4.4,1.8,9,2.8,13.9v0.1c0.9,4.5,1.9,9.1,2.9,13.6c0.3,1.5,0.7,3,1,4.6c0.3,1.5,0.7,2.9,1,4.4
		c11.3,49.7,24.2,87.8,39.4,116.6c12.4,23.5,31.1,43.9,55.7,60.9c23.8,16.4,51.8,28.8,83.2,36.7c62.8,15.8,133.1,11.8,193.4-11
		c37.5-123.5,14.4-259.9-8-391.8C960.3,2889.1,953.6,2850.1,948.6,2812.1z M541.8,2028.8c0,0-0.1,0-0.2,0c-2,0-4-0.8-5.5-2.2
		c-3.2-3.1-4.5-7.1-5.5-10.3c-0.1-0.4-0.3-0.9-0.4-1.3c-0.1,0-0.1-0.1-0.1-0.2s-0.1-0.2-0.1-0.3c-0.1-0.2-0.1-0.3-0.2-0.5
		c0-0.1-0.1-0.2-0.1-0.3c-1.3-0.3-2.4-1-3.4-2l-0.1-0.1c-2-2-2.8-4.9-2.1-7.6c5.4-21.6,36.7-51.3,61.3-52c7.9-0.2,22,2.3,28.2,22
		c0.5,1.8,0.4,3.6-0.2,5.3C600.9,2011.6,577.6,2027.9,541.8,2028.8z M668.1,2051.4c-2,16.5-10.7,30.3-23.4,37
		c-5.2,2.8-11,4.2-16.9,4.2c-6.7,0-13.8-1.8-20.7-5.4c-2-1.1-3.4-2.9-4-5.1c-5.3-20.1,1.6-31.1,8.3-36.7
		c13.8-11.6,36.7-9.3,52.1-2.2C666.7,2044.6,668.5,2047.9,668.1,2051.4z"/>
	<path d="M146,743.7c0.2,0,0.3,0,0.4,0c3.1,0,6,1.9,7.3,4.8c15.7,36.4,41.7,60.1,81.8,74.6c33.6,12.1,76.4,17.9,143.1,19.3
		c56.3,1.2,124-1.9,189.4-4.9c65.8-3.1,133.8-6.2,190.8-5c113.7,2.4,233.6,2.6,349.6,2.8c102.1,0.2,207.6,0.4,307.1,2.1
		c212.2,3.6,485.1,4.1,714.9-24.6c25.6-3.2,50.8-5.6,75.1-8c18.8-1.8,36.5-3.5,53.8-5.5c1.9-0.3,3.8-0.5,5.7-0.7
		c2-0.2,4.1-0.4,6.1-0.7c3.9-0.5,7.8-1,11.6-1.5c3.7-0.5,7.5-1.1,11.2-1.7l0.4-0.1c1.1-0.2,2.2-0.4,3.4-0.5c1.7-0.3,3.3-0.5,5-0.8
		c1.7-0.2,3.4-0.5,5.1-0.8c1.2-0.2,2.3-0.4,3.4-0.6c1.1-0.2,2.2-0.4,3.4-0.6c1.1-0.2,2.4-0.5,3.6-0.7c1-0.2,1.9-0.4,2.8-0.6
		c6.1-1.3,12.6-2.7,18.7-4.4h0.1c2-0.5,4.2-1.1,6.2-1.7c0.8-0.2,1.7-0.5,2.6-0.7c2.5-0.8,5.4-1.7,8.4-2.7c12-4,22-8.4,30.7-13.3
		c2.4-1.4,4.9-2.9,7.3-4.3c3.6-2.3,6.8-4.6,9.6-6.9c0.7-0.7,1.6-1.3,2.6-2.1l2.2-1.9c0.6-0.5,1.2-1,1.5-1.4c0.3-0.3,0.5-0.6,0.8-0.8
		s0.6-0.5,0.8-0.7c0.4-0.3,0.8-0.8,1.3-1.2c9.4-9.5,16.6-20.8,21.6-33.5c0.7-1.7,1.9-3.2,3.6-4.1c15.6-8.5,34.7-13.2,53.1-17.7
		c37.7-9.2,70.4-17.2,75.8-52.9c-5.3-9.3-19.3-12-34.1-14.8c-11.1-2.2-22.6-4.4-31.8-9.7c-11.5-6.6-17.5-17-17.8-31
		c0-1.4,0.3-2.8,1-4c9-16.7,25.5-25.7,41.5-34.5c17.9-9.8,34.9-19.1,41.9-38.5c7.4-20,7.4-41.6,0.3-64.2
		c-6.1-19.3-17.2-38.3-32.1-54.9c-18.4-7.9-38.5-4.8-59.7-1.6c-14.8,2.3-30.1,4.6-45,3c-14.3-1.5-27.3-8-39.9-14.2
		c-8.9-4.4-17.3-8.6-25.5-10.7c-129.1-33.4-264.1-40.2-407-47.3c-40.4-2-82-4.1-124.9-6.8c-2.5-0.2-4.8-1.5-6.2-3.7
		c-24-37.8-46.8-77.7-68.9-116.2c-37.2-64.8-75.6-131.9-120.5-190.6c-87.2,11.9-180.1,13-267.7,12.3c-8.1,0-16.4-0.1-24.4-0.2
		c-6-0.1-12.2-0.1-18.3-0.2c-6.1-0.1-12.2-0.2-18.3-0.2l-24.8-0.3c-8.2-0.1-16-0.2-24-0.2c-32.5-0.3-70.8-0.4-108.8,0.3
		c-0.1,0-0.1,0-0.2,0h-0.7c-20.9,0.5-36.8,1-51.6,1.7c-1.3,0.1-2.7,0.1-4,0.2c-1.4,0.1-2.8,0.1-4.2,0.2c-7.9,0.4-16.2,0.9-24.1,1.4
		c-0.6,0-1.1,0-2,0.1h-0.3c-0.1,0-0.3,0-0.4,0c-3.4,0.2-6.8,0.5-10.2,0.8c-0.2,0-0.5,0-0.7,0c-0.5,0-1.5,0.2-1.9,0.2
		c-0.1,0-0.1,0-0.2,0c-1.2,0.1-2.4,0.2-3.6,0.3c-2.3,0.2-4.5,0.4-6.7,0.6c-0.3,0.1-0.6,0.1-0.9,0.1c-0.3,0-0.6,0-1.1,0.1
		c-0.1,0.1-0.3,0.1-0.4,0.1c-5.7,0.5-11.2,1-16.9,1.6c-0.2,0-0.5,0-0.8,0c-0.1,0-0.4,0.1-0.6,0.1c-0.4,0-0.7,0.1-1,0.1
		c-1.8,0.2-3.5,0.4-5.2,0.6c-1.6,0.1-3.2,0.3-4.9,0.5c-1.5,0.2-3.1,0.4-4.7,0.6c-1.6,0.2-3.1,0.3-5.2,0.2c-17,2.2-32.6,4.4-47.6,7
		c-0.1,0-0.1,0-0.2,0h-0.2c-0.3,0-0.7,0.1-0.9,0.1c-0.2,0.1-0.4,0.2-0.7,0.2c-5.5,1-10.8,2-16.2,3c-7.7,1.6-14.1,2.9-20.5,4.3
		c-3.2,0.7-6.5,1.5-9.7,2.3c-33,7.9-62.7,17.3-90.5,28.8c-3.2,7.5-6.5,14.9-9.7,22.3c-41,94.2-83.5,191.5-117.1,295.1
		c-1.1,3.2-4,5.4-7.4,5.5c-103.9,3-223.2,16.4-338.6,29.3c-68.4,7.7-132.9,14.9-194.3,20.1c-11.7,1-22.1,0.2-32.1-0.6
		c-11.5-0.9-21.4-1.7-31.1,0.4C58.4,444.3,23,467,7.4,498.3c-8.7,17.5-9.7,34.5-3,50.7c0.5,0.5,0.8,1.1,1.1,1.7
		c3.1,6.7,21.6,14,36.5,19.9c27.2,10.8,58,23,58.1,47.7c0,6.8-2.3,12.8-6.7,18.1c-0.5,0.7-1.2,1.5-2,2.3c-7.8,8.1-20.1,13.7-33,19.7
		c-13.1,6.1-26.7,12.4-36,21.3c-0.1,0-0.2,0.1-0.3,0.2c-0.1,0.1-0.3,0.3-0.4,0.4c-1.9,1.9-3.6,3.9-5.1,6.1c-0.2,0.3-0.4,0.7-0.5,0.9
		c-0.1,0.3-0.3,0.6-0.5,0.9c-0.1,0.2-0.3,0.5-0.5,0.9c-0.2,0.4-0.4,0.7-0.6,1.1c0,0.1-0.1,0.2-0.2,0.4c-0.1,0.1-0.1,0.3-0.2,0.4
		c-0.4,0.8-0.7,1.5-1,2.3c-0.1,0.1-0.1,0.1-0.1,0.2c-0.2,0.3-0.3,0.6-0.4,1c0,0.2,0,0.3-0.1,0.5c-0.4,1.2-0.7,2.5-1,3.9
		c-0.1,0.5-0.2,1.1-0.3,1.6c-0.3,2.4-0.4,4.9-0.3,7.4C43,730.5,100.3,745.7,146,743.7z M1967.9,442.8c9.5-6.8,22.8-10.1,40.4-10.2
		c3.7,0,6.9,2.5,7.8,6.1c3,12.7-1.1,33.8-13.4,47.1c-7.6,8.3-17.3,12.6-28.3,12.6c-2.2,0-4.4-0.2-6.7-0.5c-2.6-0.4-4.8-2-6-4.3
		l-0.1-0.3c-2.1-4.2-2.8-5.1-4.2-5.4c-3.7-0.7-6.5-4-6.5-7.8C1951,463.4,1956.7,450.8,1967.9,442.8z M1885.3,399.3
		c7.1-13.1,25.6-23.1,51.2-15.7c3.2,1,5.5,3.7,5.8,7c1.5,17.1-1.8,30-9.8,38.2c-6.6,6.8-16.2,10.2-28.5,10.2c-1.6,0-3.2-0.1-4.9-0.2
		s-3.3-0.8-4.6-1.9C1882.2,426.5,1878.6,411.7,1885.3,399.3z M805,281.6c7.8-9,15.8-18.2,21.1-28.4c5.6-10.7,9-22.8,12.4-34.4
		c5.1-17.7,10.4-36.1,23.2-51.1c23.4-27.4,93.6-55.8,153.2-61.8c81.7-8.4,171.9-11,251.4-13.3c56.7-1.6,110.1-3.1,153.8-6.5
		c1.5-0.1,3,0.2,4.3,0.9c55.6-4,86.2-0.7,108.1,11.7c23.3,13.2,35.9,35.7,54.9,69.7c5.2,9.4,11.1,20,17.9,31.5
		c8.1,13.8,18.4,26.7,28.3,39.2c20.4,25.9,38.1,48.2,31.7,70.8c-2,7.1-7.2,13.4-15.4,18.6c-0.9,0.5-1.8,1.1-2.9,1.7
		c0,0.1-0.1,0.1-0.1,0.1c-0.3,0.2-0.7,0.5-1.1,0.7c-1,0.5-2.2,1.2-3.7,1.8c-0.3,0.1-0.6,0.2-0.9,0.3c-3,1.4-6.3,2.8-10.4,4.3
		c0,0.1-0.1,0.1-0.1,0.1c-1.7,0.6-3.6,1.2-5.4,1.8l-1.1,0.4c-0.2,0.1-0.4,0.1-0.6,0.2c-0.9,0.3-1.7,0.5-2.5,0.7
		c-0.5,0.1-1,0.2-1.5,0.4c-0.1,0-0.3,0.1-0.4,0.1c-0.2,0.1-0.5,0.1-0.7,0.2c-0.3,0.2-0.7,0.3-1.1,0.4c-0.4,0.1-0.8,0.2-1.2,0.3
		c-0.2,0.1-0.5,0.1-0.7,0.2c-1.4,0.4-2.9,0.8-4.5,1.1c-0.4,0-0.7,0.1-1.1,0.1c-0.2,0-0.3,0.1-0.5,0.1s-0.3,0.1-0.5,0.1
		c-0.4,0.1-0.8,0.2-1.2,0.3c-0.4,0.2-0.8,0.3-1.3,0.4c-3.7,0.9-7.5,1.6-11.2,2.3c-0.4,0.1-0.9,0.1-1.4,0.1c-2.4,0.4-4.8,0.9-7.3,1.3
		c-7.4,1.2-15.6,2.3-25.2,3.5c-0.6,0.2-1.2,0.3-1.8,0.4c-4.5,0.5-9.1,1-13.7,1.5c-0.3,0-0.6,0-0.9,0c-0.4,0-0.7-0.1-1-0.1
		c-4.1,0.4-8.2,0.7-12.3,1.1c-0.1,0-0.1,0-0.2,0c-0.8,0.1-1.5,0.1-2.3,0.2c-0.9,0.1-1.8,0.1-2.7,0.2l-7.4,0.6c-0.1,0-0.1,0-0.2,0
		c-1.7,0.1-3.2,0.2-4.5,0.4c-0.2,0-0.3,0-0.5,0l-3.2,0.2c-0.5,0.2-1,0.3-1.6,0.3c-2.6,0.2-5,0.3-7.4,0.4c-0.1,0-0.2,0-0.3,0
		c-0.1,0-0.2,0-0.3,0c-0.3,0-0.6-0.1-0.9-0.1c-0.4,0-0.8,0.1-1.2,0.1c-1.2,0.1-2.3,0.1-3.5,0.2c-1.3,0.1-2.5,0.1-3.8,0.2
		c-0.1,0-0.2,0-0.3,0c-0.6,0-1.1-0.1-1.6-0.2c-0.2,0.1-0.5,0.1-0.8,0.1c-0.5,0-1.2,0.1-1.9,0.1c-0.9,0-1.8,0.1-2.8,0.1
		c-1.2,0-2.5,0.1-3.9,0.2h-0.3c-0.2,0-0.3,0-0.5,0h-2.3c-1.3,0-2.6,0.1-4,0.2h-0.1c-0.9,0.3-1.8,0.5-2.8,0.5c-0.9,0-1.9,0.1-2.9,0.1
		c-1.2,0-2.4,0.1-3.7,0.1c-0.6,0-1.3,0-1.9-0.2c-0.6,0.1-1.2,0.3-1.9,0.3c-2.2,0.1-4.4,0.2-6.6,0.2c-1,0-1.9-0.2-2.8-0.5
		c-0.7,0-1.6,0.1-2.4,0.1c-0.1,0-0.3,0-0.4,0c-1.2,0-2.2,0-3.2,0.1c-0.2,0-0.4,0-0.6,0c-2.3,0-4.6,0.1-6.7,0.2c-0.2,0-0.3,0-0.4,0
		h-9.6c-2.2,0-4.3,0.1-6.3,0.2c-0.1,0-0.3,0-0.4,0h-4.4c-36.2,1.5-74.8,2.4-115.6,3.3c-58.8,1.3-125.5,2.9-195.3,6.6
		c-8.4,0.5-16.9,0.9-25.4,1.4c-45.3,2.5-91.2,5.1-135.1,5.1c-61,0-117.9-5-163.7-21.8c-2.9-1.1-4.9-3.7-5.2-6.8
		C773.2,318.2,789.4,299.6,805,281.6z M196.8,591.8c1.6-1,3.4-2,5.6-3.1l1.2-0.6c0.8-0.5,1.7-0.9,2.8-1.4c3.5-1.7,7.6-3.1,12.3-4.5
		c0.5-0.2,1-0.4,1.6-0.5c0.4-0.1,0.8-0.2,1.2-0.3c0-0.1,0.1-0.1,0.2-0.1c1.8-0.5,3.4-0.8,4.9-1.1c1-0.2,2.2-0.5,3.4-0.6
		c1.2-0.2,2.4-0.3,3.4-0.4c0.4,0,0.7,0,1.1,0c24.7-2.9,49.8,3,74.2,8.6c14.5,3.4,28.2,6.5,41.2,7.8
		c141.2,13.3,273.5,13.9,413.5,14.5c19.9,0.1,39.8,0.2,59.9,0.3c76.2,0.4,154.9,1.6,231,2.8c148.5,2.3,302,4.7,455.5,2.2
		c165.8-2.8,331.9-17.9,492.6-32.5c122.5-11.1,238.1-21.6,351.6-26.8c3-0.1,5.8,1.5,7.3,4.1c1.5,2.6,1.4,5.9-0.3,8.4
		c-18,26.7-47.4,44.9-89.8,55.5c-36.5,9.2-77.9,11.8-118,14.3c-14,0.9-27.2,1.7-40.3,2.8c-289.6,24.5-567.5,37.7-849.8,40.5
		c-39.7,0.4-79.9,0.6-120.5,0.6c-208.1,0-431-5.3-704.8-16.4c-21-0.9-48.7-2.2-76.2-4.4c-2.9-0.2-5.6-0.4-8.4-0.7
		c-2-0.2-4-0.3-6-0.5c-2-0.2-4.1-0.4-6.2-0.6c-3.9-0.4-8.1-0.8-12.3-1.3c-6.7-0.7-13.5-1.5-20-2.4c-5.3-0.8-11.9-1.2-19-1.7
		c-17.6-1.2-39.3-2.7-57.5-9.3c-0.3,0-0.7-0.1-1-0.2c-1.4-0.4-2.5-0.9-3.3-1.3c-0.4-0.2-0.7-0.4-1-0.6c-1.2-0.5-2.4-1.1-3.5-1.6
		c-1.1-0.5-2.2-1.2-3.2-1.7c-0.5-0.3-1-0.6-1.5-0.9c-0.1,0-0.2-0.1-0.3-0.1c-0.5-0.1-0.9-0.3-1.3-0.6c-1.2-0.8-2.6-1.6-3.9-2.7
		c-0.3-0.2-0.5-0.4-0.7-0.6c-1.4-1.1-3-2.4-4.5-3.9l-0.7-0.7c-8.1-8.1-12.9-18.4-14.2-30.6C192.8,596.4,194.2,593.4,196.8,591.8z"/>
	<path d="M1385.2,290.4c69.7-4.1,135.7-7.9,200.8-10.3c-1-2.2-2.1-4.3-3.1-6.5c-43.5-91.3-62.9-110.5-80.6-125.7
		c-58,8.4-137.4,9.1-221.3,9.9c-143.5,1.3-306.2,2.8-364,47.3c-19.1,14.7-26.4,36.5-34.2,59.6c-4.5,13.3-9.1,26.9-16,40
		C1062.4,309.1,1233.7,299.2,1385.2,290.4z"/>
	<path d="M2161.8,1216.7c-101.4,16.2-195.1,49.5-244.6,69.1c-12.1,139.5-13.1,282.3-14.1,420.5c-0.1,12.8-0.2,25.5-0.3,38.2
		c-0.4,52.3-0.9,106.4-1.5,163.7c-4.2,440.2-9.5,987.5,20.9,1403.5c6.6,0.2,13.9,0.3,21.5,0.5c49.3,1.1,116.8,2.7,178.5-2.4
		c71.3-5.9,115.7-19.3,131.8-39.7c25.8-32.7,28.9-135.3,30.8-196.6c0.6-18.9,1.1-35.3,2.1-46.1c18.9-207.2,32.8-420.4,46.2-626.6
		c21.7-333.6,42.2-648.7,82.2-944.1c1.6-11.9,3.5-24.2,5.4-36.1c9.7-62.2,19.7-126.6-3.7-184
		C2354.9,1206.3,2269,1199.7,2161.8,1216.7z M2174.2,1425c-2.9,13.4-12,24.6-24.8,30.8c-6.9,3.3-14.3,5-21.9,5
		c-8,0-16.1-1.9-23.8-5.6c-2.2-1-3.7-3-4.3-5.3c-0.5-2.3-0.1-4.7,1.3-6.6c2.4-3.3,5-8.4,3.5-18.9c-0.5-3.1,1-6.2,3.7-7.9
		c17.9-11.1,50.9-18,65,2.2C2174.2,1420.5,2174.7,1422.8,2174.2,1425z M2230,1517c-0.7,4.7-1.4,10.1-1.2,19.6c0,2.2-0.8,4.3-2.3,5.8
		s-3.5,2.4-5.7,2.4h-24.7c-2.4,0-4.7-1.1-6-2.8c-14.5-17.7-2.7-43.8,3.5-57c0.4-1.2,1-2.2,1.9-3.1l0.1-0.1c1.7-1.8,4.2-2.6,6.6-2.3
		c5.6,0,9.3,2,12.1,3.5c2.3,1.3,3.2,1.8,5.5,1.5c4.1-0.6,7.8,2,8.8,6C2231.8,1503.8,2231,1509.6,2230,1517z"/>
	<path d="M2552.6,933.5l-4-1.7c-2.2-1-3.8-2.8-4.5-5.1s-0.3-4.7,1-6.7c26-38.8,28.4-94.1,5.4-123.4c-15.4-19.6-39.6-24-70.1-12.7
		c-0.9,0.3-1.8,0.5-2.7,0.5c-15.5,0.2-25.3,10.9-36.6,23.3c-8.3,9.2-16.9,18.6-28.8,25.1c-38.7,21.1-91.7,25.1-153.1,29.7
		c-21.7,1.7-44,3.4-67.2,5.9c-29,3.1-57.4,7-84.9,10.7c-47.7,6.4-92.7,12.5-133,14c-57,2.1-116.7,5.7-174.4,9.3
		c-95.6,5.9-194.5,11.9-280.3,10.5c-94.6-1.6-188-4-278.4-6.3c-151.2-3.9-307.5-7.9-476.9-8.5c-52.7-0.2-107.4,3-165.4,6.3
		c-113,6.5-229.9,13.2-330-6.5c-13.4-2.6-25.7-6.7-37.6-10.6c-25.8-8.5-48.3-15.9-73.3-5.9c-15.6,32.5-0.2,50.1,16,68.7
		c11.4,13.2,23.3,26.8,20.6,44.8c-0.2,1.5-0.8,2.9-1.8,4c-11.5,13.5-29.7,18.8-47.4,23.8c-14,4-27.3,7.8-36,15.2
		c-1.6,4.1-3.3,8.3-5,12.3c-11.1,26.7-22.5,54.4-18.5,80.6c3.1,20.1,22.4,38.5,41.2,56.2c16.2,15.4,31.6,29.8,37.4,46.1
		c18.3,50.5,14.7,136.5,11.9,205.6c-1.1,27.5-2.1,51.3-1.5,68.4c2.9,80.4,8.9,160.4,18.6,244.6c0.4,4,0.9,8.2,1.4,12.3
		c0.4,4.1,0.9,8.2,1.4,12.3c1,8,2,16.4,3.1,24.4c1.6,12,3.2,24.4,4.9,36.5c0.3,2,0.6,4,0.9,6.1c0.2,1.9,0.5,3.9,0.8,5.9
		c1.7,12,3.5,24.2,5.3,35.9v0.2c2.2,14.2,4.5,29.4,7,44.6c0.4,2.5,0.8,5,1.2,7.5s0.8,4.9,1.2,7.3l3.9,23.7
		c3.2,19,6.6,38.8,10.2,58.8c2.3,13,4.3,24,6.4,35.1c6.9,38,13.8,74.7,19.7,105.6c1.5,7.9,3,15.7,4.5,23.6
		c1.4,7.8,2.9,15.7,4.4,23.5c1.1,5.8,2.2,11.8,3.4,17.6v0.1c1.3,7.2,2.6,14.3,4,21.5c2,10.6,4,21.2,6,31.9
		c4.8,25.6,9.7,52.8,16,88.3c0.9,4.9,1.7,9.8,2.6,14.7c0.9,4.9,1.7,9.9,2.6,14.8c2.9,16.2,5.6,32.3,8.2,47.3
		c8.3,48.2,16.5,97.2,24.4,144.6c24.4,146.2,49.8,297.3,79.5,440.7c5.7,27.8,15.7,60.7,25.3,92.4c17.3,57,33.6,110.9,29,142.5
		c-2.7,18-14,31.9-24.9,45.3c-10.3,12.6-20,24.5-19.6,37.3c0.5,11.4,8.3,22.5,16.6,34.3c6.6,9.3,13.4,18.9,16.8,29.4
		c97,45.8,230.5,51.7,371.8,58c50.8,2.2,103.3,4.6,155.4,8.8c186.4,15.2,401.2,23,547.3,19.8c18.2-0.4,37.4-0.8,57.5-1.2
		c140-3,331.6-7,500.2-18.6c92.6-6.4,172.9-27.7,238.7-63.3c13.4-7.3,59.7-33.8,94.9-69.9c32.5-33.4,44.2-63.1,34.7-88.1
		c-5.9-15.7-19.1-20-35.8-25.4c-13.2-4.4-28.3-9.2-41.1-21c-1.8-1.7-2.8-4.1-2.6-6.5c17.6-242.2,45-484.1,71.6-718.1
		c25.5-224.8,51.9-457.2,69.1-687.2c19.3-257.5,24.9-485.6,17.2-697.5c-0.1-2,0.5-3.9,1.8-5.4c12.4-14.9,30-24.6,47-33.9
		c26.2-14.4,48.8-26.8,50.3-55.2C2639.2,970.5,2597.1,952.5,2552.6,933.5z M272.6,1080.8c0.4-1.6,0.8-3.2,1.2-4.7
		c0.1-0.3,0.2-0.6,0.3-0.9c0-0.1,0.1-0.2,0.1-0.3c0.1-0.3,0.2-0.7,0.4-1.1l0.2-0.5c0.1-0.4,0.3-0.9,0.5-1.3c0.5-1.3,1.1-2.6,1.8-3.8
		c0.1-0.3,0.3-0.6,0.4-0.8c0.1-0.3,0.2-0.5,0.4-0.8l0.4-0.6c0.4-0.5,0.7-1.1,1.2-1.8s0.9-1.3,1.2-1.6l0.1-0.1
		c0.1-0.1,0.1-0.2,0.2-0.3l1.6-1.9c0.2-0.2,0.3-0.3,0.5-0.5l0.6-0.6c0.5-0.5,1.1-1,1.7-1.3c16.5-14.5,42.2-11.4,61.1-9.1
		c4.9,0.6,9.5,1.2,13,1.3c184.2,6.3,403,5.7,614.5,5.1c87.8-0.2,178.6-0.5,264.3-0.2c32,0.1,63.8,0.3,97.5,0.5
		c169.3,1.1,344.3,2.2,509.2-10.4c55.4-4.2,115.8-13.9,174.2-23.3c35.1-5.7,71.4-11.5,106.8-16.2c32.1-4.2,65.7-7.1,98.2-9.8
		c74.5-6.3,144.8-12.3,190.8-33.9c2.5-1.2,5.5-1,7.8,0.5c3.7,2.4,6,3.7,10.2,3.6c2.2-0.1,4.3,0.8,5.9,2.3c1.6,1.5,2.4,3.6,2.4,5.8
		c-0.7,32-17.4,54.5-49.5,66.7c-26.3,10-58.3,11.8-86.6,13.5c-8.7,0.5-17,1-24.3,1.7c-76.6,7.2-153.6,17.4-228.1,27.3
		c-127.5,16.9-259.4,34.4-389.8,36.9c-125.7,2.4-248.6,3.2-369,3.2c-122.2,0-241.9-0.8-359.6-1.6c-133-0.9-270.5-1.9-407.4-1.6
		c-39.3,0-81.4-1.6-129-4.9c-8.9-0.6-18.8-0.4-29.2-0.2c-31.2,0.7-66.4,1.4-89.4-21.2c-1.1-1.1-2.1-2.2-2.9-3.1
		c-1-1-1.8-2.1-2.4-3.1C272.6,1085.8,272,1083.2,272.6,1080.8z M1023.7,3356.6c-0.5,1.5-1.5,2.9-2.8,3.9
		c-22.1,16.8-51.9,28.6-88.5,35.1c-20.8,3.7-43.3,5.6-66.7,5.6c-13.9,0-28-0.7-42.2-2c-37.4-3.5-73.8-11.4-105.4-22.9
		c-33.5-12.2-60.5-28.2-78.2-46.2c-36.8-37.4-64.1-94.6-83.6-174.7c-17.2-70.6-26.8-152.1-36.2-231c-7.3-60.9-14.7-123.9-25.6-181
		c-10.5-55.2-21.4-112-32-166.9c-21.1-109.7-43-223.1-61.8-327c-30.6-168.6-56-334.7-79-489.1c-8.1-54.3-14-109-19.7-161.9
		c-12.7-117.6-24.6-228.7-58.6-324.7c-0.8-1.6-1.1-3.4-0.7-5.2c0.5-2.6,2.4-4.8,4.9-5.8c54.8-21.4,154.7-35.3,248.7-34.6
		c50.3,0.4,96.7,5,134.2,13.3c43.5,9.6,75.4,24.1,94.6,42.9c78.8,77.1,111.7,358.7,125.8,478.9c26.2,225.4,60.4,443.2,93.5,653.9
		c20.1,128.1,40.9,260.6,59.6,392.8c4.4,31,9.6,63.2,14.9,94.3C1043.6,3057.1,1069.2,3215.1,1023.7,3356.6z M1774,3361
		c-0.3,1.4-1,2.6-2,3.6c-27.8,28-67,45.9-119.9,54.5c-39.3,6.4-81.8,7.2-123.8,7.2c-7,0-14,0-21,0c-4.2,0-8.4,0-12.6,0
		c-110.6-0.2-225.5-3.1-309-35.1c-1.7-0.6-3.1-1.8-4-3.4c-69.5-119.5-82-279-94.2-433.3c-1.8-22.7-3.6-46.2-5.6-68.7
		c-2.4-27.2-5-54.8-7.8-82l-0.3-2.9c-1-9.9-2-20.2-3.1-30.3c-1-10.1-2.1-20.4-3.2-30.3l-4.5-41.5c-1.6-15-3.3-30.5-5-45.7
		c-0.7-5.7-1.3-11.3-1.9-16.9c-0.7-5.6-1.3-11.2-1.9-16.9c-8.6-79.3-19.3-178-26.9-271.7c-19.5-239.2-49.1-574.8-74.1-799.8
		c-2.3-20.7-6.1-44-10.1-68.6c-12.8-78.7-26-160.2,1.9-194.1c27.4-33.2,107.2-38.2,177.5-42.6c21.9-1.3,42.6-2.6,59.8-4.7
		c42-5,77.5-10.9,111.9-16.5c47.9-7.8,93.1-15.3,144.6-18.1c0.4,0,0.8-0.1,1.2-0.1c46.5-2.4,115-2.8,177.3,9.2
		c68,13.1,112.2,38,131.4,74c21.2,39.9,17.3,137.9,13.4,232.8c-1.3,31.7-2.5,61.6-2.6,86.9c-0.1,30.4-0.3,58.4-0.5,85.4
		c-0.5,62.4-1,116.2,0.5,171.2c4.4,161.6,12.9,301,22.7,462.5c2.2,37.2,4.6,75.6,6.9,115.1c4.4,73.9,3.7,150.8,3,232.3
		c-0.7,73.8-1.3,150,1.9,227l0.8,17C1801.4,3072.4,1808.2,3233.6,1774,3361z M2467.4,1483.3c-6.4,37.5-13.1,76.3-16.3,113.7
		c-6,69.7-13.1,138.6-20.7,211.5c-6.4,61.3-13,124.7-18.8,188.5c-14.3,156.1-20.8,306.1-27.8,465c-5.6,127.7-11.4,259.9-21.6,394.2
		c-2.4,31.8-7.8,70.5-13.5,111.5c-6.3,45.6-12.9,92.8-16.1,135.4c-0.9,12.1-1.6,24.7-2.4,38.1c-4.3,74-9.1,157.9-50.1,189.8
		c-35,27.3-103.5,32.9-163.9,37.8c-13.4,1.1-26.1,2.1-37.7,3.3c-32.9,3.5-65.3,6.4-95.8,6.4c-41.5,0-79.7-5.4-111.3-22.1
		c-2.6-1.3-4.2-4-4.3-6.9c-1.4-73.7-6.5-148.3-11.8-227.2c-6.8-100-13.7-203.5-12.9-306.3c0.6-68.5,3.3-138.1,6-205.5
		c4.3-107.4,8.7-218.5,3.9-322.5c-15.1-328.4-1-697.6,14.8-1047.6c0.2-3.2,2.2-5.9,5.1-7.1c56.5-22.1,169-61.6,288.4-78.9
		c127.7-18.5,228.7-6.9,300.3,34.5c2,0.8,3.6,2.4,4.5,4.6C2500.8,1287.7,2483.8,1387.1,2467.4,1483.3z"/>
</g>
</svg>
